<svg width="21" height="19" viewBox="0 0 21 19" fill="none" xmlns="http://www.w3.org/2000/svg">
<path d="M8.16764 11.9654C7.56868 11.3675 7.2041 10.555 7.2041 9.64353C7.2041 7.81749 8.67494 6.34561 10.4999 6.34561C11.4031 6.34561 12.2343 6.71124 12.8229 7.30915" stroke="#555555" stroke-width="1.5" stroke-linecap="round" stroke-linejoin="round"/>
<path d="M13.7345 10.228C13.4928 11.5718 12.4345 12.6322 11.0918 12.8759" stroke="#555555" stroke-width="1.5" stroke-linecap="round" stroke-linejoin="round"/>
<path d="M4.93197 15.2003C3.27884 13.9024 1.87884 12.0066 0.864258 9.64303C1.88926 7.26907 3.29863 5.36282 4.96217 4.05449C6.6153 2.74615 8.52259 2.03574 10.4997 2.03574C12.4882 2.03574 14.3945 2.75657 16.058 4.07428" stroke="#555555" stroke-width="1.5" stroke-linecap="round" stroke-linejoin="round"/>
<path d="M18.2581 6.36542C18.9748 7.3175 19.605 8.41646 20.1352 9.6425C18.0863 14.3894 14.4654 17.2488 10.4998 17.2488C9.60085 17.2488 8.71439 17.1029 7.8623 16.8185" stroke="#555555" stroke-width="1.5" stroke-linecap="round" stroke-linejoin="round"/>
<path d="M18.7154 1.42667L2.28418 17.8579" stroke="#555555" stroke-width="1.5" stroke-linecap="round" stroke-linejoin="round"/>
</svg>
