<svg width="25" height="25" viewBox="0 0 25 25" fill="none" xmlns="http://www.w3.org/2000/svg">
<path d="M12.1641 18.5391C15.7539 18.5391 18.6641 15.6289 18.6641 12.0391C18.6641 8.44921 15.7539 5.53906 12.1641 5.53906C8.57421 5.53906 5.66406 8.44921 5.66406 12.0391C5.66406 15.6289 8.57421 18.5391 12.1641 18.5391Z" stroke="#F5F5F5" stroke-width="1.5" stroke-linecap="round" stroke-linejoin="round"/>
<path d="M19.3041 19.1791L19.1741 19.0491M19.1741 5.02906L19.3041 4.89906L19.1741 5.02906ZM5.02406 19.1791L5.15406 19.0491L5.02406 19.1791ZM12.1641 2.11906V2.03906V2.11906ZM12.1641 22.0391V21.9591V22.0391ZM2.24406 12.0391H2.16406H2.24406ZM22.1641 12.0391H22.0841H22.1641ZM5.15406 5.02906L5.02406 4.89906L5.15406 5.02906Z" stroke="#F5F5F5" stroke-width="2" stroke-linecap="round" stroke-linejoin="round"/>
</svg>
